<mxfile host="app.diagrams.net" modified="2023-05-18T23:59:32.443Z" agent="Mozilla/5.0 (Windows NT 10.0; Win64; x64) AppleWebKit/537.36 (KHTML, like Gecko) Chrome/113.0.0.0 Safari/537.36 Edg/113.0.1774.42" etag="DZHQLEw103jbo9BQ3fLL" version="21.3.2" type="github">
  <diagram name="PÃ¡gina-1" id="QfqWTqQWJnXosQa_KPlv">
    <mxGraphModel dx="396" dy="216" grid="1" gridSize="10" guides="1" tooltips="1" connect="1" arrows="1" fold="1" page="1" pageScale="1" pageWidth="827" pageHeight="1169" math="0" shadow="0">
      <root>
        <mxCell id="0" />
        <mxCell id="1" parent="0" />
        <mxCell id="3oICHx9fCfQNsuBtIcty-12" value="" style="shape=xor;whiteSpace=wrap;html=1;" vertex="1" parent="1">
          <mxGeometry x="210" y="70" width="60" height="80" as="geometry" />
        </mxCell>
        <mxCell id="3oICHx9fCfQNsuBtIcty-15" value="" style="group" vertex="1" connectable="0" parent="1">
          <mxGeometry x="70" y="170" width="32.5" height="30" as="geometry" />
        </mxCell>
        <mxCell id="3oICHx9fCfQNsuBtIcty-13" value="" style="triangle;whiteSpace=wrap;html=1;" vertex="1" parent="3oICHx9fCfQNsuBtIcty-15">
          <mxGeometry width="22.5" height="30" as="geometry" />
        </mxCell>
        <mxCell id="3oICHx9fCfQNsuBtIcty-14" value="" style="ellipse;whiteSpace=wrap;html=1;aspect=fixed;" vertex="1" parent="3oICHx9fCfQNsuBtIcty-15">
          <mxGeometry x="22.5" y="10" width="10" height="10" as="geometry" />
        </mxCell>
      </root>
    </mxGraphModel>
  </diagram>
</mxfile>
